# xmcd
#
# Track frame offsets:
#	150
#	42478
#	79016
#	104624
#	131639
#	163201
#	170062
#
# Disc length: 2334 seconds
#
# Revision: 1
# Processed by: cddbd v1.5.1PL2 Copyright (c) Steve Scherf et al.
# Submitted via: EasyCDDAExtractor 8.2.3.1
#
DISCID=60091c07
DTITLE=Paul Barrere and Fred Tackett - Grand Lido Braco - Jamaica 01-31-03 disc 
DTITLE=2
DYEAR=2003
DGENRE=Blues
TTITLE0=All That You Dream
TTITLE1=Tears Of Rage
TTITLE2=Eula
TTITLE3=Old Folks Boogie
TTITLE4=Willin' ->
TTITLE5=Don't Bogart That Joint ->
TTITLE6=Willin'
EXTD=
EXTT0=
EXTT1=
EXTT2=
EXTT3=
EXTT4=
EXTT5=
EXTT6=
PLAYORDER=
